<?xml version="1.0" encoding="UTF-8"?>
<!-- theme: Amelia Earhart's 129th Birthday — Born July 24, 1897, in Atchison, Kansas. Aviation pioneer, first woman to fly solo across the Atlantic (1932), first person to fly solo from Hawaii to the mainland US (1935). Disappeared over the central Pacific on July 2, 1937 during her attempted circumnavigation in a Lockheed Model 10-E Electra. A high-altitude cloudscape at mid-morning: warm cerulean sky above a deck of golden-lit cumulus tops, a small dark silhouette of a twin-engine Lockheed Electra crossing left-to-right with spinning props, a long dotted contrail arc sweeping from lower-left up and across the frame, a compass rose ghosted onto the sky at upper-left, a faint navigation-chart rhumb-line grid, birds far below. Large ivory JULY 24, 2026 headline dominates the right; gold AMELIA EARHART · 129 YEARS subhead; italic ATCHISON · 24 JULY 1897 · FIRST WOMAN SOLO ATLANTIC tertiary. Palette: high sky #2b5f8c, sky mid #4a8fc7, sky low #7ab8e0, cream #f4e8c8, cloud white #f8f4e8, cloud shadow #b8a878, gold #e8b048, warm horizon #f0c070, silhouette #12100d, chart red #c04030, ivory #f4efdc. -->
<svg xmlns="http://www.w3.org/2000/svg" viewBox="0 0 800 200" width="800" height="200" role="img" aria-label="Daily doodle for July 24, 2026 — Amelia Earhart's 129th birthday. A high-altitude cloudscape at mid-morning: warm cerulean sky above a deck of golden-lit cumulus tops, a small dark silhouette of a twin-engine Lockheed Electra crossing left-to-right with spinning propellers, a long dotted contrail arc sweeping across the frame, a ghosted compass rose at upper-left, a faint navigation-chart rhumb-line grid, and birds far below. A JULY 24, 2026 headline dominates the right, with a gold AMELIA EARHART · 129 YEARS subhead and italic ATCHISON · 24 JULY 1897 · FIRST WOMAN SOLO ATLANTIC tertiary.">
  <defs>
    <!-- Sky gradient: deep cerulean top to warm horizon -->
    <linearGradient id="sky" x1="0%" y1="0%" x2="0%" y2="100%">
      <stop offset="0%"   stop-color="#2b5f8c"/>
      <stop offset="35%"  stop-color="#4a8fc7"/>
      <stop offset="70%"  stop-color="#7ab8e0"/>
      <stop offset="100%" stop-color="#f0c070"/>
    </linearGradient>

    <!-- Cloud fill: warm cream lit from upper-right -->
    <linearGradient id="cloudLit" x1="0%" y1="0%" x2="0%" y2="100%">
      <stop offset="0%"   stop-color="#f8f4e8"/>
      <stop offset="55%"  stop-color="#f4e8c8"/>
      <stop offset="100%" stop-color="#b8a878"/>
    </linearGradient>

    <!-- Warm sun bleed from upper right -->
    <radialGradient id="sunbleed" cx="92%" cy="10%" r="55%">
      <stop offset="0%"   stop-color="#ffe8a8" stop-opacity="0.55"/>
      <stop offset="45%"  stop-color="#f0c070" stop-opacity="0.18"/>
      <stop offset="100%" stop-color="#f0c070" stop-opacity="0"/>
    </radialGradient>

    <!-- Vignette darkening -->
    <radialGradient id="vig" cx="50%" cy="50%" r="70%">
      <stop offset="60%" stop-color="#000" stop-opacity="0"/>
      <stop offset="100%" stop-color="#000" stop-opacity="0.35"/>
    </radialGradient>

    <!-- Cloud shape (reusable) -->
    <symbol id="cloudA" viewBox="0 0 200 60">
      <path fill="url(#cloudLit)" d="M10,50 Q6,32 22,28 Q26,10 48,14 Q58,4 76,10 Q92,2 110,10 Q126,4 140,14 Q158,10 170,22 Q188,22 190,40 Q198,50 184,54 L18,54 Q4,52 10,50 Z"/>
    </symbol>
    <symbol id="cloudB" viewBox="0 0 160 50">
      <path fill="url(#cloudLit)" d="M8,42 Q4,26 18,22 Q22,8 40,12 Q56,4 72,12 Q88,6 100,14 Q118,10 130,20 Q148,20 150,34 Q156,42 144,46 L14,46 Q2,44 8,42 Z"/>
    </symbol>

    <!-- Compass rose (ghosted overlay) -->
    <symbol id="compass" viewBox="-50 -50 100 100">
      <g fill="none" stroke="#f4efdc" stroke-width="0.5" opacity="0.55">
        <circle cx="0" cy="0" r="45"/>
        <circle cx="0" cy="0" r="36"/>
        <circle cx="0" cy="0" r="20"/>
      </g>
      <!-- Ticks -->
      <g stroke="#f4efdc" stroke-width="0.5" opacity="0.55">
        <g id="tick"><line x1="0" y1="-45" x2="0" y2="-40"/></g>
        <use href="#tick" transform="rotate(30)"/>
        <use href="#tick" transform="rotate(60)"/>
        <use href="#tick" transform="rotate(90)"/>
        <use href="#tick" transform="rotate(120)"/>
        <use href="#tick" transform="rotate(150)"/>
        <use href="#tick" transform="rotate(180)"/>
        <use href="#tick" transform="rotate(210)"/>
        <use href="#tick" transform="rotate(240)"/>
        <use href="#tick" transform="rotate(270)"/>
        <use href="#tick" transform="rotate(300)"/>
        <use href="#tick" transform="rotate(330)"/>
      </g>
      <!-- Compass points -->
      <g fill="#f4efdc" opacity="0.7">
        <polygon points="0,-36 3,0 0,36 -3,0"/>
        <polygon points="-36,0 0,3 36,0 0,-3"/>
      </g>
      <!-- Rotating fleur-de-lis pointer -->
      <g class="rotor">
        <polygon points="0,-32 4,0 0,32 -4,0" fill="#c04030" opacity="0.85"/>
        <circle cx="0" cy="0" r="2.4" fill="#f4efdc"/>
      </g>
      <!-- N E S W labels -->
      <g fill="#f4efdc" opacity="0.85" font-family="Georgia, serif" font-size="7" text-anchor="middle">
        <text x="0" y="-46">N</text>
        <text x="46" y="3">E</text>
        <text x="0" y="52">S</text>
        <text x="-46" y="3">W</text>
      </g>
    </symbol>

    <!-- Bird silhouette -->
    <symbol id="bird" viewBox="-10 -6 20 12">
      <path d="M-10,0 Q-6,-5 -3,0 Q0,-4 3,0 Q6,-5 10,0" fill="none" stroke="#12100d" stroke-width="1" stroke-linecap="round"/>
    </symbol>

    <!-- Soft glow -->
    <filter id="soft" x="-30%" y="-30%" width="160%" height="160%">
      <feGaussianBlur stdDeviation="1.4"/>
    </filter>

    <!-- Text soft shadow -->
    <filter id="textShadow" x="-20%" y="-20%" width="140%" height="140%">
      <feGaussianBlur stdDeviation="1.8" result="b"/>
      <feColorMatrix in="b" values="0 0 0 0 0.05  0 0 0 0 0.05  0 0 0 0 0.1  0 0 0 0.6 0"/>
    </filter>

    <style>
      .h1 { font-family: 'Georgia', 'Times New Roman', serif; font-weight: 700; letter-spacing: 1.4px; }
      .h2 { font-family: -apple-system, BlinkMacSystemFont, 'Segoe UI', Helvetica, Arial, sans-serif; font-weight: 700; letter-spacing: 3.4px; }
      .h3 { font-family: -apple-system, BlinkMacSystemFont, 'Segoe UI', Helvetica, Arial, sans-serif; font-weight: 500; font-style: italic; letter-spacing: 1.6px; }
      .lbl { font-family: -apple-system, BlinkMacSystemFont, 'Segoe UI', Helvetica, Arial, sans-serif; font-weight: 500; letter-spacing: 1.2px; }
      .chart { font-family: 'Georgia', 'Times New Roman', serif; font-style: italic; font-weight: 400; letter-spacing: 0.6px; }

      /* Compass slow rotor */
      .rotor { animation: rotor 41s linear infinite; transform-origin: center; transform-box: fill-box; }
      @keyframes rotor {
        from { transform: rotate(0deg); }
        to   { transform: rotate(360deg); }
      }

      /* Propeller spin — visual blur disk on nose */
      .prop { animation: prop 0.4s linear infinite; transform-origin: center; transform-box: fill-box; }
      @keyframes prop {
        from { transform: rotate(0deg); }
        to   { transform: rotate(360deg); }
      }

      /* Contrail dashes stream */
      .stream { animation: stream 7s linear infinite; }
      @keyframes stream {
        from { stroke-dashoffset: 0; }
        to   { stroke-dashoffset: -60; }
      }

      /* Cloud drift */
      .drift1 { animation: drift1 61s linear infinite; }
      @keyframes drift1 {
        from { transform: translateX(0); }
        to   { transform: translateX(-40px); }
      }
      .drift2 { animation: drift2 83s linear infinite; }
      @keyframes drift2 {
        from { transform: translateX(0); }
        to   { transform: translateX(-25px); }
      }

      /* Underline shimmer */
      .under { animation: under 11s ease-in-out infinite; }
      @keyframes under {
        0%, 100% { opacity: 0.85; }
        50%      { opacity: 1; }
      }

      /* Sun bleed pulse */
      .sunPulse { animation: sunPulse 17s ease-in-out infinite; }
      @keyframes sunPulse {
        0%, 100% { opacity: 0.9; }
        50%      { opacity: 1; }
      }

      /* Bird wing flap */
      .flap { animation: flap 1.3s ease-in-out infinite; transform-origin: center; transform-box: fill-box; }
      @keyframes flap {
        0%, 100% { transform: scaleY(1); }
        50%      { transform: scaleY(0.55); }
      }
      .flap2 { animation: flap 1.7s ease-in-out infinite; transform-origin: center; transform-box: fill-box; }
      .flap3 { animation: flap 1.9s ease-in-out infinite; transform-origin: center; transform-box: fill-box; }
    </style>
  </defs>

  <!-- ============ SKY ============ -->
  <rect width="800" height="200" fill="#0d1117"/>
  <rect width="800" height="200" fill="url(#sky)"/>
  <rect class="sunPulse" width="800" height="200" fill="url(#sunbleed)"/>

  <!-- ============ NAVIGATION-CHART GRID (faint rhumb lines from a compass point) ============ -->
  <g stroke="#f4efdc" stroke-width="0.35" opacity="0.14" fill="none">
    <!-- Rhumb lines fanning out from (110, 60) -->
    <line x1="110" y1="60" x2="800" y2="12"/>
    <line x1="110" y1="60" x2="800" y2="40"/>
    <line x1="110" y1="60" x2="800" y2="72"/>
    <line x1="110" y1="60" x2="800" y2="108"/>
    <line x1="110" y1="60" x2="800" y2="150"/>
    <line x1="110" y1="60" x2="800" y2="196"/>
    <line x1="110" y1="60" x2="640" y2="200"/>
    <line x1="110" y1="60" x2="380" y2="200"/>
    <line x1="110" y1="60" x2="0" y2="130"/>
    <line x1="110" y1="60" x2="0" y2="180"/>
    <!-- Faint lat/lon ticks -->
    <line x1="0" y1="30"  x2="800" y2="30"/>
    <line x1="0" y1="60"  x2="800" y2="60"/>
    <line x1="0" y1="90"  x2="800" y2="90"/>
    <line x1="0" y1="120" x2="800" y2="120"/>
  </g>

  <!-- ============ COMPASS ROSE (upper-left, ghosted) ============ -->
  <g transform="translate(72,68)" opacity="0.55">
    <use href="#compass" width="120" height="120" x="-60" y="-60"/>
  </g>

  <!-- ============ CLOUD DECK (lower half) — drifting slowly ============ -->
  <g class="drift2" opacity="0.9">
    <use href="#cloudA" x="-40"  y="126" width="240" height="72"/>
    <use href="#cloudA" x="240"  y="132" width="220" height="66"/>
    <use href="#cloudA" x="520"  y="128" width="260" height="78"/>
    <use href="#cloudA" x="760"  y="134" width="200" height="60"/>
  </g>
  <g class="drift1" opacity="0.95">
    <use href="#cloudB" x="90"   y="150" width="180" height="56"/>
    <use href="#cloudB" x="320"  y="156" width="200" height="60"/>
    <use href="#cloudB" x="560"  y="152" width="180" height="56"/>
  </g>

  <!-- ============ FAR-DISTANCE BIRDS (below the clouds' horizon, tiny) ============ -->
  <g>
    <use class="flap"  href="#bird" x="180" y="182" width="14" height="8"/>
    <use class="flap2" href="#bird" x="205" y="188" width="10" height="6"/>
    <use class="flap3" href="#bird" x="230" y="184" width="12" height="7"/>
    <use class="flap2" href="#bird" x="620" y="186" width="12" height="7"/>
    <use class="flap"  href="#bird" x="645" y="182" width="10" height="6"/>
  </g>

  <!-- ============ CONTRAIL (dotted arc sweeping across the frame) ============ -->
  <!-- Long arc from lower-left up to upper-right area, passing behind the plane -->
  <path class="stream" d="M-20,178 Q140,100 300,80 Q460,62 620,50 Q720,44 820,42"
        stroke="#f8f4e8" stroke-width="2.4" fill="none" stroke-linecap="round"
        stroke-dasharray="6 8" opacity="0.55"/>
  <!-- Second thinner trail (parallel, offset) -->
  <path class="stream" d="M-20,184 Q140,108 300,88 Q460,70 620,58 Q720,52 820,50"
        stroke="#f4efdc" stroke-width="1.2" fill="none" stroke-linecap="round"
        stroke-dasharray="3 10" opacity="0.35" style="animation-duration: 11s"/>

  <!-- ============ LOCKHEED ELECTRA (top-down silhouette, mid-frame-left, heading right / east) ============ -->
  <!-- Top-down aerial "map" view: nose points right, wings extend perpendicular, twin tails at rear. -->
  <g transform="translate(300,78)">
    <!-- Subtle drop shadow -->
    <ellipse cx="0" cy="22" rx="48" ry="3" fill="#000" opacity="0.16"/>

    <!-- Wings (dominant horizontal element, spanning above and below fuselage) -->
    <path fill="#12100d" d="
      M-2,-24 Q-6,-25 -10,-24
      L-14,-6
      L-20,-6 Q-24,-4 -20,-2
      L-4,-2
      L-4,2
      L-20,2 Q-24,4 -20,6
      L-14,6
      L-10,24 Q-6,25 -2,24
      L-2,6
      L2,6
      L2,24 Q6,25 10,24
      L14,6
      L20,6 Q24,4 20,2
      L4,2
      L4,-2
      L20,-2 Q24,-4 20,-6
      L14,-6
      L10,-24 Q6,-25 2,-24
      Z"/>

    <!-- Fuselage (long, tapered nose to the right) -->
    <path fill="#12100d" d="
      M-32,-4
      Q-36,-6 -32,-7
      L-8,-6
      L22,-4
      Q34,-3 38,0
      Q34,3 22,4
      L-8,6
      L-32,7
      Q-36,6 -32,4
      Z"/>

    <!-- Cockpit canopy (small warm-lit oval near the front) -->
    <ellipse cx="14" cy="0" rx="10" ry="2.6" fill="#e8b048" opacity="0.85"/>
    <ellipse cx="14" cy="0" rx="10" ry="2.6" fill="none" stroke="#12100d" stroke-width="0.4"/>
    <line x1="10" y1="-2.4" x2="10" y2="2.4" stroke="#12100d" stroke-width="0.3"/>
    <line x1="18" y1="-2.4" x2="18" y2="2.4" stroke="#12100d" stroke-width="0.3"/>

    <!-- Twin engine nacelles (mounted on the wings, extending forward past the wing leading edge) -->
    <path fill="#12100d" d="M14,-12 L28,-11 Q32,-9 32,-7 L32,-4 Q30,-2 14,-2 Z"/>
    <path fill="#12100d" d="M14,12 L28,11 Q32,9 32,7 L32,4 Q30,2 14,2 Z"/>
    <!-- Warm cowling glints -->
    <line x1="28" y1="-10" x2="30" y2="-6" stroke="#e8b048" stroke-width="0.6" opacity="0.85"/>
    <line x1="28" y1="10"  x2="30" y2="6"  stroke="#e8b048" stroke-width="0.6" opacity="0.85"/>

    <!-- Spinning propeller disks (in FRONT of engines — to the right, since heading east) -->
    <g class="prop" transform="translate(34 -6)">
      <ellipse cx="0" cy="0" rx="1.2" ry="10" fill="#f4efdc" opacity="0.35"/>
      <ellipse cx="0" cy="0" rx="0.5" ry="10" fill="#f4efdc" opacity="0.75"/>
    </g>
    <g class="prop" transform="translate(34 6)" style="animation-duration: 0.37s">
      <ellipse cx="0" cy="0" rx="1.2" ry="10" fill="#f4efdc" opacity="0.35"/>
      <ellipse cx="0" cy="0" rx="0.5" ry="10" fill="#f4efdc" opacity="0.75"/>
    </g>
    <!-- Prop hub centers -->
    <circle cx="34" cy="-6" r="1.4" fill="#e8b048"/>
    <circle cx="34" cy="6"  r="1.4" fill="#e8b048"/>

    <!-- Twin vertical stabilizers (distinctive Electra feature — at rear, as small fins on the horizontal stab tips) -->
    <path fill="#12100d" d="M-38,-10 Q-42,-10 -44,-8 L-42,-4 L-38,-4 Z"/>
    <path fill="#12100d" d="M-38,10  Q-42,10  -44,8  L-42,4  L-38,4  Z"/>
    <!-- Horizontal stabilizer at rear -->
    <path fill="#12100d" d="M-42,-9 Q-44,-10 -46,-8 L-46,8 Q-44,10 -42,9 L-38,4 L-38,-4 Z"/>

    <!-- Registration on wing (tiny, historical NR16020) -->
    <text x="-3" y="18" font-family="Georgia, serif" font-size="3" fill="#e8b048" opacity="0.9" text-anchor="middle">NR16020</text>
  </g>

  <!-- ============ HEADLINE ============ -->
  <g transform="translate(420,72)">
    <!-- Soft shadow -->
    <text x="0" y="0" class="h1" font-size="40" fill="#f4efdc" filter="url(#textShadow)" opacity="0.7">JULY 24, 2026</text>
    <text x="0" y="0" class="h1" font-size="40" fill="#f4efdc">JULY 24, 2026</text>
    <!-- Underline (flight-path curve) -->
    <path class="under" d="M2,10 Q100,4 200,10 T380,9" stroke="#e8b048" stroke-width="2.4" fill="none" stroke-linecap="round"/>
  </g>

  <!-- ============ SUBHEAD ============ -->
  <text x="420" y="110" class="h2" font-size="15" fill="#e8b048" opacity="0.98" filter="url(#textShadow)">AMELIA EARHART · 129 YEARS</text>
  <text x="420" y="110" class="h2" font-size="15" fill="#e8b048" opacity="0.98">AMELIA EARHART · 129 YEARS</text>

  <!-- ============ TERTIARY ============ -->
  <text x="420" y="128" class="h3" font-size="9" fill="#f4efdc" opacity="0.95">ATCHISON  ·  24 JULY 1897  ·  FIRST WOMAN SOLO ATLANTIC</text>

  <!-- ============ CHART ANNOTATIONS (tiny italic labels — kept above the cloud deck) ============ -->
  <g fill="#f4efdc" opacity="0.7" class="chart" font-size="6.4">
    <text x="60" y="118" transform="rotate(-16 60,118)">HEADING 090°</text>
    <text x="480" y="42">ALT 8,000 FT</text>
    <text x="200" y="60" opacity="0.6">LOCKHEED MODEL 10-E ELECTRA · NR16020</text>
  </g>

  <!-- ============ VIGNETTE ============ -->
  <rect width="800" height="200" fill="url(#vig)"/>
  <!-- Border -->
  <rect width="800" height="200" fill="none" stroke="#000" stroke-width="2" opacity="0.4"/>
</svg>
