<svg width="200" height="200" xmlns="http://www.w3.org/2000/svg">
  <!-- Ivory background circle -->
  <circle cx="100" cy="100" r="95" fill="#f5f0e8"/>
  
  <!-- Geometric knot - Celtic/mathematical style -->
  <g transform="translate(100, 100)">
    <!-- Outer rotating ring - animated with SMIL -->
    <g id="outer-ring">
      <circle r="70" fill="none" stroke="#1a1a1a" stroke-width="1" opacity="0.1"/>
      <circle cx="70" cy="0" r="3" fill="#8b4049" opacity="0.3">
        <animateTransform attributeName="transform" type="rotate" values="0; 360; 0" dur="30s" repeatCount="indefinite"/>
      </circle>
      <circle cx="-70" cy="0" r="3" fill="#8b4049" opacity="0.3">
        <animateTransform attributeName="transform" type="rotate" values="0; 360; 0" dur="30s" repeatCount="indefinite"/>
      </circle>
      <circle cx="0" cy="70" r="3" fill="#8b4049" opacity="0.3">
        <animateTransform attributeName="transform" type="rotate" values="0; 360; 0" dur="30s" repeatCount="indefinite"/>
      </circle>
      <circle cx="0" cy="-70" r="3" fill="#8b4049" opacity="0.3">
        <animateTransform attributeName="transform" type="rotate" values="0; 360; 0" dur="30s" repeatCount="indefinite"/>
      </circle>
    </g>
    
    <!-- Main knot paths -->
    <!-- Path 1: Diagonal top-left to bottom-right -->
    <path d="M -40,-40 Q -20,-20 0,0" stroke="#1a1a1a" stroke-width="4" fill="none" stroke-linecap="round"/>
    <path d="M 0,0 Q 20,20 40,40" stroke="#1a1a1a" stroke-width="4" fill="none" stroke-linecap="round"/>
    
    <!-- Path 2: Diagonal top-right to bottom-left -->
    <path d="M 40,-40 Q 20,-20 0,0" stroke="#8b4049" stroke-width="4" fill="none" stroke-linecap="round"/>
    <path d="M 0,0 Q -20,20 -40,40" stroke="#8b4049" stroke-width="4" fill="none" stroke-linecap="round"/>
    
    <!-- Over-under weave effect -->
    <!-- White gaps create illusion of threading -->
      ircle cx="-20" cy="-20" r="6" fill="#f5f0e8"/>
    <circle cx="20" cy="20" r="6" fill="#f5f0e8"/>
    
    <!-- Re-draw center crossing -->
    <path d="M -5,-5 L 5,5" stroke="#1a1a1a" stroke-width="4" stroke-linecap="round"/>
    <path d="M 5,-5 L -5,5" stroke="#8b4049" stroke-width="4" stroke-linecap="round"/>
    
    <!-- Corner loops -->
    <path d="M -45,-45 Q -55,-40 -55,-30 Q -55,-20 -50,-15" 
          stroke="#1a1a1a" st         h="2.5" fill="none" stroke-linecap="round" opacity="0.6"/>
    <path d="M 45,45 Q 55,40 55,30 Q 55,20 50,15" 
          stroke="#1a1a1a" stroke-width="2.5" fill="none" stroke-linecap="round" opacity="0.6"/>
           ="M 45,-45 Q 55,-40 55,-30 Q 55,-20 50,-15" 
          stroke="#8b4049" stroke-width="2.5" fill="none" stroke-linecap="round" opacity="0.6"/>
    <path d= M -45,45 Q -55,40 -55,30 Q -55,20 -50,15" 
          stroke="#8b4049" stroke-width="2.5" fill="none" strok   in    ="round" opacity="0.6"/>
    
                       -->
    <circle r="8" fill="none"    <circlea1a1a" stroke-width="1.5"/>
    <circle r=    <circle r=    <circle r=    <circle r=    <ci"r   al    <circle r=    <ci" repeatCount="indefinite"/>
    </circle>
  </g>
  
  <!-- Subtle border -->
  <circle cx="100" cy="100" r="95" fill="none" stroke="#1a1a1a" stroke-width="1" opacity="0.15"/>
</svg>
